<svg width="334" height="245" viewBox="0 0 334 245" fill="none" xmlns="http://www.w3.org/2000/svg">
<mask id="mask0_0_1" style="mask-type:luminance" maskUnits="userSpaceOnUse" x="52" y="38" width="225" height="169">
<path d="M258.354 40.8333H70.6455C61.4983 40.8333 54.083 47.6889 54.083 56.1458V188.854C54.083 197.311 61.4983 204.167 70.6455 204.167H258.354C267.501 204.167 274.916 197.311 274.916 188.854V56.1458C274.916 47.6889 267.501 40.8333 258.354 40.8333Z" stroke="white" stroke-width="4" stroke-linejoin="round"/>
<path d="M54.083 56.1458C54.083 52.0846 55.828 48.1898 58.9341 45.3182C62.0401 42.4465 66.2529 40.8333 70.6455 40.8333H258.354C262.746 40.8333 266.959 42.4465 270.065 45.3182C273.171 48.1898 274.916 52.0846 274.916 56.1458V102.083H54.083V56.1458Z" fill="white" stroke="white" stroke-width="4"/>
<path d="M76.1667 71.4582C76.1667 65.8203 81.1102 61.2498 87.2083 61.2498C93.3065 61.2498 98.25 65.8203 98.25 71.4582C98.25 77.0961 93.3065 81.6665 87.2083 81.6665C81.1102 81.6665 76.1667 77.0961 76.1667 71.4582Z" fill="black"/>
<path d="M109.292 71.4582C109.292 65.8203 114.235 61.2498 120.333 61.2498C126.431 61.2498 131.375 65.8203 131.375 71.4582C131.375 77.0961 126.431 81.6665 120.333 81.6665C114.235 81.6665 109.292 77.0961 109.292 71.4582Z" fill="black"/>
</mask>
<g mask="url(#mask0_0_1)">
<path d="M32 0H297V245H32V0Z" fill="#001D30"/>
</g>
<path d="M122.48 159.2V140.28C122.48 138.493 122.6 136.52 122.84 134.36L104.88 159.2H122.48ZM138.36 159.2V164.92C138.36 165.453 138.187 165.92 137.84 166.32C137.493 166.693 137 166.88 136.36 166.88H131.08V181H122.48V166.88H98.08C97.4133 166.88 96.8267 166.68 96.32 166.28C95.8133 165.853 95.4933 165.333 95.36 164.72L94.32 159.72L121.72 123.12H131.08V159.2H138.36ZM184.806 152.08C184.806 157.12 184.26 161.507 183.166 165.24C182.1 168.947 180.606 172.013 178.686 174.44C176.793 176.867 174.54 178.68 171.926 179.88C169.34 181.053 166.54 181.64 163.526 181.64C160.513 181.64 157.713 181.053 155.126 179.88C152.566 178.68 150.34 176.867 148.446 174.44C146.553 172.013 145.073 168.947 144.006 165.24C142.94 161.507 142.406 157.12 142.406 152.08C142.406 147.013 142.94 142.627 144.006 138.92C145.073 135.213 146.553 132.147 148.446 129.72C150.34 127.293 152.566 125.493 155.126 124.32C157.713 123.12 160.513 122.52 163.526 122.52C166.54 122.52 169.34 123.12 171.926 124.32C174.54 125.493 176.793 127.293 178.686 129.72C180.606 132.147 182.1 135.213 183.166 138.92C184.26 142.627 184.806 147.013 184.806 152.08ZM174.606 152.08C174.606 147.893 174.3 144.427 173.686 141.68C173.073 138.933 172.246 136.747 171.206 135.12C170.193 133.493 169.02 132.36 167.686 131.72C166.353 131.053 164.966 130.72 163.526 130.72C162.113 130.72 160.74 131.053 159.406 131.72C158.1 132.36 156.94 133.493 155.926 135.12C154.913 136.747 154.1 138.933 153.486 141.68C152.9 144.427 152.606 147.893 152.606 152.08C152.606 156.267 152.9 159.733 153.486 162.48C154.1 165.227 154.913 167.413 155.926 169.04C156.94 170.667 158.1 171.813 159.406 172.48C160.74 173.12 162.113 173.44 163.526 173.44C164.966 173.44 166.353 173.12 167.686 172.48C169.02 171.813 170.193 170.667 171.206 169.04C172.246 167.413 173.073 165.227 173.686 162.48C174.3 159.733 174.606 156.267 174.606 152.08ZM215.293 159.2V140.28C215.293 138.493 215.413 136.52 215.653 134.36L197.693 159.2H215.293ZM231.173 159.2V164.92C231.173 165.453 230.999 165.92 230.653 166.32C230.306 166.693 229.813 166.88 229.173 166.88H223.893V181H215.293V166.88H190.893C190.226 166.88 189.639 166.68 189.133 166.28C188.626 165.853 188.306 165.333 188.173 164.72L187.133 159.72L214.533 123.12H223.893V159.2H231.173Z" fill="#001D30"/>
<path d="M53.36 20C53.44 19.34 53.5 18.68 53.5 18C53.5 17.32 53.44 16.66 53.36 16H56.74C56.9 16.64 57 17.31 57 18C57 18.69 56.9 19.36 56.74 20M51.59 25.56C52.19 24.45 52.65 23.25 52.97 22H55.92C54.9512 23.6683 53.4141 24.932 51.59 25.56ZM51.34 20H46.66C46.56 19.34 46.5 18.68 46.5 18C46.5 17.32 46.56 16.65 46.66 16H51.34C51.43 16.65 51.5 17.32 51.5 18C51.5 18.68 51.43 19.34 51.34 20ZM49 25.96C48.17 24.76 47.5 23.43 47.09 22H50.91C50.5 23.43 49.83 24.76 49 25.96ZM45 14H42.08C43.0386 12.327 44.5747 11.0612 46.4 10.44C45.8 11.55 45.35 12.75 45 14ZM42.08 22H45C45.35 23.25 45.8 24.45 46.4 25.56C44.5783 24.9323 43.0443 23.6682 42.08 22ZM41.26 20C41.1 19.36 41 18.69 41 18C41 17.31 41.1 16.64 41.26 16H44.64C44.56 16.66 44.5 17.32 44.5 18C44.5 18.68 44.56 19.34 44.64 20M49 10.03C49.83 11.23 50.5 12.57 50.91 14H47.09C47.5 12.57 48.17 11.23 49 10.03ZM55.92 14H52.97C52.6565 12.7616 52.1931 11.5661 51.59 10.44C53.43 11.07 54.96 12.34 55.92 14ZM49 8C43.47 8 39 12.5 39 18C39 20.6522 40.0536 23.1957 41.9289 25.0711C42.8575 25.9997 43.9599 26.7362 45.1732 27.2388C46.3864 27.7413 47.6868 28 49 28C51.6522 28 54.1957 26.9464 56.0711 25.0711C57.9464 23.1957 59 20.6522 59 18C59 16.6868 58.7413 15.3864 58.2388 14.1732C57.7362 12.9599 56.9997 11.8575 56.0711 10.9289C55.1425 10.0003 54.0401 9.26375 52.8268 8.7612C51.6136 8.25866 50.3132 8 49 8Z" fill="#D9D9D9"/>
<path d="M103.5 13C100.458 13 98 15.4585 98 18.5C98 21.5415 100.458 24 103.5 24C106.542 24 109 21.5415 109 18.5C109 15.4585 106.542 13 103.5 13Z" fill="#D9D9D9"/>
<g clip-path="url(#clip0_0_1)">
<path d="M24.7897 122.249C23.9808 122.613 23.8643 123.616 24.3403 124.674C24.8194 125.739 25.6444 126.272 26.4467 125.911C27.2556 125.547 27.3636 124.547 26.8875 123.489C26.4478 122.512 25.6143 121.878 24.7897 122.249Z" fill="#D9D9D9"/>
<path d="M19.5652 104.282L9.07711 109C8.38171 109.313 7.8424 109.897 7.57784 110.623C7.31327 111.349 7.34512 112.158 7.66638 112.872L17.3568 134.412C17.678 135.126 18.2624 135.686 18.9813 135.97C19.7002 136.254 20.4947 136.237 21.1901 135.924L36.9223 128.846C37.6177 128.534 38.157 127.95 38.4216 127.224C38.6862 126.498 38.6543 125.688 38.333 124.974L31.0652 108.82L19.5652 104.282ZM22.5731 127.944C22.229 128.671 21.4819 129.278 20.4449 129.744C19.8222 130.025 19.3648 130.182 19.0477 130.276L16.6427 124.93C17.1432 124.61 17.6676 124.329 18.2115 124.09C19.2184 123.637 19.9548 123.529 20.6429 123.695C21.3825 123.868 22.0302 124.382 22.4614 125.341C22.9308 126.384 22.8845 127.269 22.5731 127.944ZM26.8237 126.915C25.2505 127.623 23.7827 126.817 23.085 125.266C22.3516 123.636 22.8169 121.961 24.3823 121.257C26.0092 120.525 27.4607 121.376 28.1366 122.878C28.9378 124.662 28.3707 126.219 26.8237 126.915ZM32.465 123.144C32.8255 122.981 33.1897 122.719 33.384 122.516L33.9968 123.395C33.8274 123.607 33.3864 123.951 32.7426 124.241C30.9112 125.065 29.4409 124.32 28.7432 122.769C27.908 120.912 28.7322 119.3 30.3369 118.578C30.9583 118.299 31.4871 118.216 31.7504 118.234L31.9462 119.321C31.5661 119.329 31.1929 119.414 30.8485 119.572C29.8967 120 29.4226 120.922 29.9677 122.134C30.4576 123.223 31.3952 123.625 32.465 123.144ZM23.8048 113.705L22.4938 114.295L19.4655 107.564L29.0489 111.346L23.8048 113.705Z" fill="#D9D9D9"/>
<path d="M18.7631 124.978C18.497 125.098 18.3348 125.2 18.2435 125.27L19.8454 128.831C19.9586 128.809 20.1238 128.735 20.2719 128.668C21.3611 128.188 21.7921 127.258 21.2071 125.957C20.7062 124.823 19.7936 124.515 18.7631 124.978Z" fill="#D9D9D9"/>
</g>
<path d="M300.5 26.3333C293.818 26.3333 288.417 31.5483 288.417 37.9999C288.417 44.4516 293.818 49.6666 300.5 49.6666C307.182 49.6666 312.584 44.4516 312.584 37.9999C312.584 31.5483 307.182 26.3333 300.5 26.3333Z" fill="#D9D9D9"/>
<path d="M16.5 60C12.3525 60 9 63.3525 9 67.5C9 71.6475 12.3525 75 16.5 75C20.6475 75 24 71.6475 24 67.5C24 63.3525 20.6475 60 16.5 60Z" fill="#D9D9D9"/>
<g clip-path="url(#clip1_0_1)">
<path d="M324.978 100.67L320.549 121.307C320.465 121.698 320.229 122.04 319.892 122.257C319.555 122.474 319.145 122.548 318.753 122.464L298.032 118.017C297.64 117.933 297.297 117.697 297.079 117.361C296.86 117.025 296.785 116.617 296.869 116.226L302.563 89.6926C302.646 89.3016 302.883 88.9602 303.22 88.7433C303.557 88.5264 303.966 88.4519 304.359 88.5361L319.159 91.7121M324.978 100.67L317.577 99.0824L319.159 91.7121M324.978 100.67L319.159 91.7121" stroke="#D9D9D9" stroke-width="4" stroke-linecap="round" stroke-linejoin="round"/>
<path d="M307.59 102.336C309.225 102.687 310.834 101.651 311.183 100.023C311.532 98.395 310.49 96.7907 308.856 96.4399C307.221 96.0891 305.612 97.1246 305.263 98.7528C304.913 100.381 305.955 101.985 307.59 102.336Z" stroke="#D9D9D9" stroke-width="4" stroke-linecap="round" stroke-linejoin="round"/>
<path d="M304.263 107.019L302.84 113.652L316.16 116.511L318.69 104.718L309.992 110.947L304.263 107.019Z" stroke="#D9D9D9" stroke-width="4" stroke-linecap="round" stroke-linejoin="round"/>
</g>
<path d="M300 151.5C295.852 151.5 292.5 154.852 292.5 159C292.5 163.148 295.852 166.5 300 166.5C304.148 166.5 307.5 163.148 307.5 159C307.5 154.852 304.148 151.5 300 151.5Z" fill="#D9D9D9"/>
<g filter="url(#filter0_f_0_1)">
<ellipse cx="170.5" cy="226" rx="138.5" ry="9" fill="#D9D9D9"/>
</g>
<defs>
<filter id="filter0_f_0_1" x="27" y="212" width="287" height="28" filterUnits="userSpaceOnUse" color-interpolation-filters="sRGB">
<feFlood flood-opacity="0" result="BackgroundImageFix"/>
<feBlend mode="normal" in="SourceGraphic" in2="BackgroundImageFix" result="shape"/>
<feGaussianBlur stdDeviation="2.5" result="effect1_foregroundBlur_0_1"/>
</filter>
<clipPath id="clip0_0_1">
<rect width="34.5021" height="35.428" fill="white" transform="translate(0 109.847) rotate(-24.2228)"/>
</clipPath>
<clipPath id="clip1_0_1">
<rect width="36.3291" height="36.183" fill="white" transform="translate(297.592 84) rotate(12.1115)"/>
</clipPath>
</defs>
</svg>
